HIERARCHY
ROOT hip
{
	OFFSET 0.000000 0.000000 0.000000 
	CHANNELS 6 Xposition Yposition Zposition Xrotation Zrotation Yrotation
	JOINT abdomen
	{
		OFFSET 0.000000 3.402643 0.000000 
		CHANNELS 3 Xrotation Zrotation Yrotation
		JOINT chest
		{
			OFFSET 0.000000 8.438565 -0.680529 
			CHANNELS 3 Xrotation Zrotation Yrotation
			JOINT neck
			{
				OFFSET 0.000000 10.207942 -0.272212 
				CHANNELS 3 Xrotation Zrotation Yrotation
				JOINT head
				{
					OFFSET 0.000000 3.130431 0.000000 
					CHANNELS 3 Xrotation Zrotation Yrotation
					End Site
					{
						OFFSET 0.000000 3.130435 0.000000 
					}
				}
			}
			JOINT lCollar
			{
				OFFSET 3.470700 6.669187 -0.816635 
				CHANNELS 3 Yrotation Zrotation Xrotation
				JOINT lShldr
				{
					OFFSET 3.198488 0.000000 0.000000 
					CHANNELS 3 Zrotation Yrotation Xrotation
					JOINT lForeArm
					{
						OFFSET 10.139888 0.000000 0.000000 
						CHANNELS 3 Yrotation Zrotation Xrotation
						JOINT lHand
						{
							OFFSET 8.370511 0.000000 0.000000 
							CHANNELS 3 Zrotation Yrotation Xrotation
							End Site
							{
								OFFSET 4.083176 0.000000 0.000000 
							}
						}
					}
				}
			}
			JOINT rCollar
			{
				OFFSET -3.470700 6.669187 -0.816635 
				CHANNELS 3 Yrotation Zrotation Xrotation
				JOINT rShldr
				{
					OFFSET -3.198488 0.000000 0.000000 
					CHANNELS 3 Zrotation Yrotation Xrotation
					JOINT rForeArm
					{
						OFFSET -10.139888 0.000000 0.000000 
						CHANNELS 3 Yrotation Zrotation Xrotation
						JOINT rHand
						{
							OFFSET -8.370511 0.000000 0.000000 
							CHANNELS 3 Zrotation Yrotation Xrotation
							End Site
							{
								OFFSET -4.083176 0.000000 0.000000 
							}
						}
					}
				}
			}
		}
	}
	JOINT lThigh
	{
		OFFSET 5.308129 -1.633274 1.361059 
		CHANNELS 3 Xrotation Zrotation Yrotation
		JOINT lShin
		{
			OFFSET -2.041588 -20.007561 0.000000 
			CHANNELS 3 Xrotation Zrotation Yrotation
			JOINT lFoot
			{
				OFFSET 0.000000 -19.190928 -1.224953 
				CHANNELS 3 Xrotation Yrotation Zrotation
				End Site
				{
					OFFSET 0.000000 -2.449906 4.627600 
				}
			}
		}
	}
	JOINT rThigh
	{
		OFFSET -5.308129 -1.633274 1.361059 
		CHANNELS 3 Xrotation Zrotation Yrotation
		JOINT rShin
		{
			OFFSET 2.041588 -20.007561 0.000000 
			CHANNELS 3 Xrotation Zrotation Yrotation
			JOINT rFoot
			{
				OFFSET 0.000000 -19.190928 -1.224953 
				CHANNELS 3 Xrotation Yrotation Zrotation
				End Site
				{
					OFFSET 0.000000 -2.449906 4.627600 
				}
			}
		}
	}
}
MOTION
Frames: 6
Frame Time: 0.016667
-0.295999 54.226490 -1.250570 -4.638672 0.048828 4.589852 26.298828 1.875000 0.195312 -2.480469 -0.234375 -1.826171 -11.474609 -1.894531 0.283203 0.000000 0.000000 0.000000 -7.255859 -2.734433 -0.146023 -55.488277 16.738279 -13.473750 -9.638673 -5.000000 45.000000 -34.511719 5.742187 15.693358 9.501953 4.277344 -0.235103 68.681633 -21.289063 -26.806641 7.011719 5.000000 45.000000 16.152344 -13.613280 20.642239 12.669580 13.247651 8.498854 -2.139251 -5.442853 -0.040777 -3.368586 -0.883316 -10.761822 17.099323 -2.929883 -14.284643 -2.523957 3.137751 -0.075180 -1.169641 -9.950083 7.119226 
-0.295931 54.223835 -1.251897 -4.619141 0.068359 4.599620 26.318357 1.845703 0.166016 -2.470703 -0.224611 -1.826197 -11.503906 -1.875000 0.283203 0.000000 0.000000 0.000000 -7.216797 -2.734375 -0.146018 -55.488277 16.699219 -13.444460 -9.648438 -5.000000 45.000000 -34.423828 5.742188 15.712893 9.482423 4.287109 -0.235105 68.652344 -21.259764 -26.777344 7.011719 5.000000 45.000000 16.210938 -13.662109 20.603163 12.655147 13.222457 8.382892 -2.167381 -5.430465 -0.000603 -3.372674 -0.856986 -10.751301 17.094324 -2.910744 -14.290573 -2.551354 3.116001 -0.066433 -1.174855 -10.040056 7.103746 
-0.293473 54.220371 -1.253106 -4.609375 0.107422 4.619159 26.318357 1.816406 0.146484 -2.441406 -0.244141 -1.816406 -11.513672 -1.835938 0.273437 0.000000 0.000000 0.000000 -7.216797 -2.705079 -0.156250 -55.498047 16.669922 -13.454227 -9.648438 -5.000000 45.000000 -34.257813 5.722657 15.820313 9.462890 4.316406 -0.234375 68.642578 -21.240234 -26.777346 7.031250 5.000000 45.000000 16.269531 -13.652345 20.595705 12.635944 13.174020 8.333146 -2.166677 -5.432044 -0.039579 -3.400383 -0.757665 -10.732878 17.105932 -2.949113 -14.318537 -2.567342 3.102844 -0.066607 -1.185409 -10.003279 7.096670 
-0.289425 54.216381 -1.254237 -4.589844 0.166016 4.648463 26.328123 1.757813 0.146484 -2.402344 -0.283203 -1.806642 -11.503906 -1.796875 0.263672 0.000000 0.000000 0.000000 -7.226563 -2.675781 -0.146486 -55.488277 16.621094 -13.444471 -9.619140 -5.000000 45.000000 -34.042969 5.673828 16.006824 9.443359 4.355469 -0.234375 68.632813 -21.220703 -26.780878 7.041016 5.000000 45.000000 16.318357 -13.613281 20.605471 12.609118 13.119205 8.283423 -2.187247 -5.411998 0.000378 -3.388240 -0.794552 -10.768442 17.117271 -2.988233 -14.346710 -2.576372 3.082153 -0.076169 -1.202526 -9.938666 7.162634 
-0.286913 54.212124 -1.256512 -4.580079 0.224609 4.667965 26.328123 1.708984 0.146484 -2.373047 -0.312500 -1.796928 -11.494141 -1.757813 0.263372 0.000000 0.000000 0.000000 -7.236329 -2.656250 -0.146484 -55.468750 16.562500 -13.434714 -9.589844 -5.000000 45.000000 -33.828125 5.615234 16.182594 9.414063 4.384766 -0.235122 68.613281 -21.210939 -26.777344 7.050782 5.000000 45.000000 16.357424 -13.574220 20.612942 12.570565 13.061485 8.231049 -2.159450 -5.403057 -0.030823 -3.407711 -0.759987 -10.776157 17.103699 -3.047284 -14.380378 -2.585223 3.072778 -0.115486 -1.271512 -9.868927 7.185778 
-0.290566 54.206802 -1.263358 -4.531250 0.253906 4.677774 26.337891 1.660156 0.137002 -2.363281 -0.292969 -1.816406 -11.513671 -1.748047 0.263374 0.000000 0.000000 0.000000 -7.197266 -2.695313 -0.156250 -55.429691 16.503906 -13.378908 -9.550781 -5.000000 45.000000 -33.632816 5.498047 16.308594 9.423828 4.414062 -0.234375 68.593750 -21.191406 -26.810173 7.050781 5.000000 45.000000 16.318357 -13.525391 20.605469 12.457281 13.044072 8.161820 -2.070800 -5.394106 0.010173 -3.472598 -0.787570 -10.800876 17.079544 -3.067063 -14.415451 -2.515734 3.003140 -0.118024 -1.345330 -9.707488 7.319341 
